<svg xmlns="http://www.w3.org/2000/svg" viewBox="0 0 512 512">
  <rect width="512" height="512" rx="92" fill="#123f2f"/>
  <path d="M74 338c62 48 125 72 188 72 75 0 132-31 174-94-48 18-95 27-141 27-71 0-136-23-196-70l-25 65z" fill="#3d9560"/>
  <path d="M110 176c36-48 86-72 150-72 44 0 82 11 114 34" fill="none" stroke="#f7f2de" stroke-width="32" stroke-linecap="round"/>
  <path d="M365 143c-34-22-71-33-110-33-56 0-100 21-132 63" fill="none" stroke="#bd8a28" stroke-width="18" stroke-linecap="round"/>
  <text x="256" y="313" text-anchor="middle" font-family="Inter, Arial, sans-serif" font-size="178" font-weight="900" fill="#ffffff">S</text>
  <circle cx="378" cy="156" r="34" fill="#ffffff"/>
</svg>
