<svg xmlns="http://www.w3.org/2000/svg" viewBox="0 0 900 1600" role="img" aria-label="Illustrated golf green">
  <defs>
    <radialGradient id="bg" cx="46%" cy="42%" r="72%">
      <stop offset="0%" stop-color="#2d7f32"/>
      <stop offset="58%" stop-color="#1e642f"/>
      <stop offset="100%" stop-color="#123f25"/>
    </radialGradient>
    <linearGradient id="island" x1="0" y1="0" x2="0" y2="1">
      <stop offset="0%" stop-color="#70be2d"/>
      <stop offset="100%" stop-color="#3c8f29"/>
    </linearGradient>
    <linearGradient id="green" x1="0" y1="0" x2="1" y2="0">
      <stop offset="0%" stop-color="#a9dc31"/>
      <stop offset="50%" stop-color="#d3f244"/>
      <stop offset="100%" stop-color="#a0d728"/>
    </linearGradient>
    <linearGradient id="bunker" x1="0" y1="0" x2="1" y2="1">
      <stop offset="0%" stop-color="#fff2c7"/>
      <stop offset="100%" stop-color="#e7c579"/>
    </linearGradient>
    <filter id="softShadow" x="-20%" y="-20%" width="140%" height="140%">
      <feDropShadow dx="0" dy="24" stdDeviation="24" flood-color="#092611" flood-opacity=".32"/>
    </filter>
    <pattern id="mow" width="68" height="68" patternUnits="userSpaceOnUse">
      <rect width="34" height="68" fill="#ffffff" opacity=".06"/>
    </pattern>
  </defs>

  <rect width="900" height="1600" fill="url(#bg)"/>
  <path d="M445 172c178 2 320 102 366 265 43 151 4 290 29 431 28 159-25 333-146 434-126 105-328 129-485 66C65 1310 30 1146 67 1000c40-157 68-254 41-399-35-188 68-358 218-411 37-13 76-18 119-18Z" fill="url(#island)" filter="url(#softShadow)"/>
  <path d="M450 218c152 0 274 87 315 229 37 128 2 247 24 366 25 137-21 287-125 373-109 90-286 111-421 57-123-49-153-191-121-317 36-137 61-222 38-347-30-162 58-309 187-354 31-11 65-7 103-7Z" fill="#5faf2d" opacity=".72"/>
  <path d="M416 316c119 0 227 66 265 178 32 94 10 190 45 286 33 90 11 211-72 279-91 74-252 84-361 27-102-53-107-161-63-267 51-124 53-195 17-299-37-108 32-204 127-204h42Z" fill="#68b932"/>
  <path d="M431 362c101 0 192 57 224 151 27 78 8 159 38 239 28 75 9 176-61 233-78 62-215 70-308 23-86-44-90-135-53-224 43-104 45-164 15-251-31-91 28-171 109-171h36Z" fill="#8dd12e"/>
  <path d="M433 402c83 0 159 48 186 126 22 65 7 132 31 198 24 62 8 146-50 193-64 51-178 58-255 19-72-37-75-112-44-186 36-86 37-136 12-208-26-75 24-142 91-142h29Z" fill="url(#green)"/>
  <path d="M433 402c83 0 159 48 186 126 22 65 7 132 31 198 24 62 8 146-50 193-64 51-178 58-255 19-72-37-75-112-44-186 36-86 37-136 12-208-26-75 24-142 91-142h29Z" fill="url(#mow)" opacity=".72"/>

  <path d="M641 640c61-13 108 30 100 92-7 51-41 64-39 111 3 58-76 95-119 57-34-30-26-88-3-121 24-34 0-78 19-107 10-15 24-27 42-32Z" fill="#2d852d" opacity=".55"/>
  <path d="M651 663c43-9 76 22 70 65-5 35-29 45-27 78 2 40-54 66-84 39-24-21-18-61-2-84 17-24 0-55 13-75 7-11 17-19 30-23Z" fill="url(#bunker)"/>
  <path d="M653 684c29-5 51 16 47 45-3 24-20 30-18 52 1 27-37 45-57 27-16-14-12-41-1-57 11-16 0-37 9-50 5-8 12-13 20-17Z" fill="#fff7d9" opacity=".48"/>

  <g transform="translate(410 656)">
    <path d="M0 0v72" stroke="#103c28" stroke-width="4" stroke-linecap="round"/>
    <path d="M4 4c26 2 40 10 57 22-18 12-36 14-57 11Z" fill="#fff"/>
    <circle cy="72" r="8" fill="#f9fff8"/>
    <path d="M-7 82c-22 4-41 10-58 20 26-4 45-4 63 2Z" fill="#174f2e" opacity=".36"/>
  </g>

  <g fill="#8bd034" opacity=".9">
    <circle cx="250" cy="202" r="28"/><circle cx="288" cy="190" r="35"/><circle cx="332" cy="184" r="26"/>
    <circle cx="555" cy="210" r="34"/><circle cx="606" cy="226" r="25"/><circle cx="686" cy="300" r="38"/>
    <circle cx="125" cy="429" r="28"/><circle cx="105" cy="640" r="24"/><circle cx="116" cy="865" r="31"/>
    <circle cx="142" cy="1112" r="34"/><circle cx="243" cy="1305" r="28"/><circle cx="398" cy="1372" r="36"/>
    <circle cx="596" cy="1346" r="34"/><circle cx="730" cy="1238" r="29"/><circle cx="797" cy="1025" r="24"/>
    <circle cx="812" cy="805" r="31"/><circle cx="785" cy="565" r="24"/><circle cx="760" cy="404" r="30"/>
  </g>
  <g fill="#a9df35" opacity=".72">
    <circle cx="205" cy="238" r="17"/><circle cx="620" cy="178" r="19"/><circle cx="742" cy="325" r="20"/>
    <circle cx="94" cy="535" r="15"/><circle cx="93" cy="985" r="18"/><circle cx="322" cy="1372" r="18"/>
    <circle cx="512" cy="1368" r="16"/><circle cx="822" cy="925" r="17"/>
  </g>
  <g fill="#9bd52b" opacity=".66">
    <path d="M236 410l16 42 22-41-12 54 34-20-26 33"/>
    <path d="M706 516l16 42 22-41-12 54 34-20-26 33"/>
    <path d="M210 1164l16 42 22-41-12 54 34-20-26 33"/>
    <path d="M665 1176l16 42 22-41-12 54 34-20-26 33"/>
  </g>
</svg>
