<svg xmlns="http://www.w3.org/2000/svg" viewBox="0 0 720 420">
  <rect width="720" height="420" rx="36" fill="#101f1a"/>
  <path d="M0 296c124-54 246-82 366-82 132 0 250 30 354 90v116H0z" fill="#244a36"/>
  <path d="M122 98c70-50 152-72 246-64 86 7 160 40 222 99" fill="none" stroke="#f7f2de" stroke-width="18" stroke-linecap="round"/>
  <path d="M136 116c72-32 146-42 224-30 70 11 132 39 187 84" fill="none" stroke="#bd8a28" stroke-width="10" stroke-linecap="round"/>
  <circle cx="390" cy="156" r="28" fill="#f7f8f2"/>
  <path d="M378 188c-24 54-50 91-79 111-30 21-72 28-125 22" fill="none" stroke="#f7f8f2" stroke-width="20" stroke-linecap="round"/>
  <path d="M322 222c54 6 107 25 158 58" fill="none" stroke="#f7f8f2" stroke-width="16" stroke-linecap="round"/>
  <path d="M286 292l-54 62" stroke="#f7f8f2" stroke-width="17" stroke-linecap="round"/>
  <path d="M320 300l72 48" stroke="#f7f8f2" stroke-width="17" stroke-linecap="round"/>
  <circle cx="570" cy="330" r="15" fill="#ffffff"/>
</svg>
