<svg xmlns="http://www.w3.org/2000/svg" viewBox="0 0 720 420">
  <rect width="720" height="420" rx="36" fill="#e9f1eb"/>
  <path d="M0 268c120-72 248-110 384-112 128-2 240 28 336 90v174H0z" fill="#2f7f50"/>
  <path d="M0 304c118-44 244-68 378-72 130-4 244 12 342 48v140H0z" fill="#5fae72"/>
  <path d="M450 0c-48 52-78 112-91 181-10 52-8 111 7 176h354V0z" fill="#d8e6dc"/>
  <path d="M478 46c-44 48-70 101-79 159-7 45-3 94 13 146h308V46z" fill="#f7f8f2"/>
  <path d="M568 126v154" stroke="#123f2f" stroke-width="7" stroke-linecap="round"/>
  <path d="M574 132l72 27-72 27z" fill="#bd8a28"/>
  <circle cx="568" cy="294" r="18" fill="#fff"/>
  <path d="M78 342c108-66 224-100 348-102" fill="none" stroke="#f7f8f2" stroke-width="7" stroke-linecap="round" opacity=".55"/>
</svg>
