<svg xmlns="http://www.w3.org/2000/svg" viewBox="0 0 720 420">
  <rect width="720" height="420" rx="36" fill="#dfece2"/>
  <path d="M104 90c76-60 176-82 298-66 112 15 184 67 216 156 36 100-18 174-160 222-112 38-214 18-306-60C70 272 54 154 104 90z" fill="#3b965d"/>
  <path d="M126 112c68-48 156-64 264-50 96 13 158 55 186 126 28 72-18 126-138 162-96 29-184 12-264-52-70-57-86-150-48-186z" fill="#67b777"/>
  <path d="M360 116v176" stroke="#f7f8f2" stroke-width="8" stroke-linecap="round"/>
  <path d="M368 122l82 31-82 31z" fill="#bd8a28"/>
  <circle cx="360" cy="308" r="22" fill="#ffffff"/>
  <path d="M192 310c92-26 202-27 330-4" fill="none" stroke="#f7f8f2" stroke-width="8" stroke-linecap="round" opacity=".5"/>
  <path d="M208 176c78-30 170-34 276-12" fill="none" stroke="#f7f8f2" stroke-width="8" stroke-linecap="round" opacity=".38"/>
</svg>
